<?xml version="1.0" standalone="no"?>
<!DOCTYPE svg PUBLIC "-//W3C//DTD SVG 20010904//EN"
 "http://www.w3.org/TR/2001/REC-SVG-20010904/DTD/svg10.dtd">
<svg version="1.0" xmlns="http://www.w3.org/2000/svg"
 width="634.000000pt" height="273.000000pt" viewBox="0 0 634.000000 273.000000"
 preserveAspectRatio="xMidYMid meet">

<g transform="translate(0.000000,273.000000) scale(0.100000,-0.100000)"
fill="#000000" stroke="none">
<path d="M718 2134 c-60 -32 -58 -4 -58 -819 0 -819 -2 -788 60 -820 44 -23
1156 -23 1200 0 62 32 60 1 60 820 0 819 2 788 -60 820 -43 22 -1161 22 -1202
-1z m792 -162 c31 -11 74 -29 96 -40 53 -27 147 -104 175 -143 21 -29 21 -33
6 -64 -9 -19 -40 -52 -68 -75 -50 -39 -319 -180 -344 -180 -7 0 -20 9 -30 20
-30 33 -91 22 -83 -16 4 -25 36 -39 143 -62 174 -39 266 -90 332 -186 97 -141
77 -334 -46 -457 -184 -184 -494 -164 -706 45 -59 58 -76 81 -90 127 -22 69
-14 121 23 156 34 31 61 26 89 -17 12 -19 29 -43 37 -52 9 -10 18 -29 22 -44
15 -58 140 -119 230 -112 49 4 62 10 87 38 24 27 28 39 23 69 -8 55 -45 81
-114 81 -205 0 -381 131 -437 324 -23 80 -17 219 14 298 56 145 186 255 356
304 67 19 212 12 285 -14z"/>
<path d="M2721 1596 c-8 -9 -11 -95 -9 -292 l3 -278 27 -16 c25 -13 29 -13 45
3 15 14 19 41 23 146 4 90 9 133 19 145 23 28 67 46 111 46 32 0 48 -7 78 -34
l37 -34 5 -128 c5 -128 5 -128 33 -144 27 -14 29 -14 49 10 19 23 20 35 16
145 -5 131 -19 174 -75 227 -58 56 -156 74 -230 43 -19 -8 -37 -15 -39 -15 -2
0 -4 31 -4 69 0 93 -11 121 -49 121 -15 0 -34 -6 -40 -14z"/>
<path d="M4190 1590 c-7 -12 -9 -115 -8 -292 l3 -272 28 -16 c27 -14 29 -14
48 9 16 20 19 39 19 133 0 78 4 117 15 138 41 79 179 79 220 0 11 -21 15 -60
15 -140 0 -97 2 -112 20 -130 25 -25 42 -25 64 -1 16 17 18 36 14 148 -4 138
-12 164 -65 217 -60 61 -163 83 -240 51 -19 -8 -37 -15 -39 -15 -2 0 -4 34 -4
76 0 41 -5 84 -10 95 -14 26 -66 26 -80 -1z"/>
<path d="M5170 1591 c-6 -12 -10 -121 -10 -285 0 -253 1 -267 20 -286 26 -26
45 -25 64 2 16 22 16 22 48 3 69 -41 195 -18 255 47 53 56 77 159 52 225 -45
121 -182 185 -296 138 -19 -8 -37 -15 -39 -15 -2 0 -4 34 -4 76 0 91 -10 114
-50 114 -19 0 -33 -7 -40 -19z m280 -256 c59 -30 80 -127 39 -179 -59 -75
-161 -72 -209 7 -68 110 54 232 170 172z"/>
<path d="M2286 1429 c-57 -45 -73 -126 -36 -187 30 -48 72 -62 190 -62 107 0
140 -9 140 -38 0 -35 -21 -42 -131 -42 -73 0 -110 -4 -116 -12 -21 -28 -22
-49 -3 -68 17 -17 34 -20 128 -20 86 0 114 4 142 19 67 35 92 120 56 189 -27
52 -65 66 -199 70 -106 4 -118 6 -129 25 -9 17 -7 24 12 39 18 15 41 18 126
18 95 0 104 2 115 21 8 16 8 28 0 45 -10 23 -14 24 -139 24 -116 0 -132 -2
-156 -21z"/>
<path d="M3342 1440 c-47 -19 -92 -64 -118 -116 -51 -105 -18 -220 82 -283
151 -96 339 9 338 189 0 89 -54 170 -136 204 -41 17 -130 20 -166 6z m134
-100 c69 -34 94 -113 54 -177 -45 -74 -139 -83 -197 -19 -28 30 -33 43 -33 86
0 40 5 56 28 81 15 17 43 34 62 39 19 4 37 8 39 9 3 1 24 -8 47 -19z"/>
<path d="M3822 1433 c-113 -62 -160 -182 -113 -289 42 -93 107 -137 206 -138
96 0 187 60 170 113 -10 34 -48 36 -98 7 -47 -28 -85 -33 -120 -15 -28 15 -67
50 -67 61 0 4 69 8 154 8 127 0 157 3 170 16 28 28 15 100 -30 165 -54 78
-192 114 -272 72z m160 -99 c15 -8 32 -23 38 -34 10 -19 7 -20 -105 -20 -112
0 -115 1 -105 20 17 33 88 63 125 53 11 -3 32 -12 47 -19z"/>
<path d="M4680 1431 c-5 -11 -10 -71 -10 -133 0 -121 16 -175 63 -226 82 -88
242 -88 324 0 47 51 63 105 63 226 0 124 -8 152 -45 152 -43 0 -55 -33 -55
-156 0 -98 -3 -115 -21 -138 -45 -58 -114 -71 -170 -33 -51 34 -59 59 -59 180
0 124 -8 147 -50 147 -19 0 -33 -7 -40 -19z"/>
</g>
</svg>
